<svg width="78" height="84" viewBox="0 0 78 84" fill="none" xmlns="http://www.w3.org/2000/svg">
<g clip-path="url(#clip0_0_142)">
<path d="M14.0236 41.8801C13.8871 42.1151 13.8369 42.3913 13.8817 42.6601C13.9265 42.9289 14.0634 43.1731 14.2685 43.3496C21.9223 49.9179 23.7508 60.3687 24.0392 62.3965C24.0783 62.6716 24.2137 62.9232 24.4207 63.1055C24.6278 63.2878 24.8926 63.3884 25.1669 63.3891C25.2208 63.3885 25.2747 63.3842 25.328 63.3761C25.6269 63.3324 25.8965 63.1704 26.0777 62.9255C26.2589 62.6807 26.3369 62.373 26.2946 62.0699C25.9402 59.5784 24.5128 52.1285 19.6122 45.7072C22.6151 47.1978 25.6019 49.1652 28.3615 52.2069C31.3129 55.6649 33.1092 60.8111 33.1269 60.8601C33.1747 61.0053 33.2506 61.1393 33.35 61.2546C33.4494 61.3698 33.5704 61.4639 33.7059 61.5313C33.8415 61.5988 33.9889 61.6383 34.1396 61.6475C34.2904 61.6568 34.4414 61.6356 34.584 61.5853C34.7266 61.5349 34.858 61.4563 34.9704 61.3541C35.0828 61.2519 35.174 61.1281 35.2388 60.9898C35.3037 60.8516 35.3407 60.7017 35.3479 60.5488C35.3551 60.3959 35.3323 60.2431 35.2808 60.0993C35.2051 59.8772 33.4201 54.7555 30.3253 50.9791C30.0901 47.6272 29.2637 40.9332 26.3816 34.7388C29.0217 37.2154 31.3189 40.0428 33.2106 43.1438L33.2316 43.1814C35.1312 46.3123 36.6501 49.6646 37.7553 53.1653V53.1767V53.193C38.2386 54.7163 38.8218 57.216 39.2052 59.0478C39.2598 59.3069 39.4004 59.5392 39.6036 59.7059C39.8067 59.8726 40.0602 59.9636 40.3216 59.9638C40.4017 59.9636 40.4816 59.9554 40.56 59.9393C40.8561 59.875 41.115 59.6944 41.2799 59.437C41.4448 59.1796 41.5022 58.8664 41.4397 58.5662C41.0723 56.8225 40.5294 54.4845 40.0461 52.8648C41.2641 49.4133 42.8902 46.1239 44.8888 43.0687L44.9774 42.9365C46.8955 40.0179 49.1882 37.371 51.7952 35.0653C48.6215 41.4328 47.6597 48.3946 47.3762 51.5946V51.6109C47.3762 51.6191 47.3762 51.6289 47.3762 51.6371C47.1007 56.9498 48.1656 60.6528 48.2107 60.8079C48.3061 61.09 48.5052 61.324 48.7666 61.461C49.028 61.598 49.3315 61.6275 49.6138 61.5432C49.8961 61.459 50.1355 61.2676 50.2819 61.009C50.4284 60.7503 50.4707 60.4443 50.4001 60.1548C50.3904 60.1221 49.4625 56.8568 49.6364 52.1987C52.075 49.6851 54.8823 47.5687 57.9589 45.9243C56.1417 48.4109 54.7739 51.3693 53.9217 54.6951C52.8536 58.8764 52.9793 62.1467 52.9857 62.2838C52.9986 62.5812 53.1242 62.8622 53.3364 63.0681C53.5485 63.274 53.8309 63.389 54.1247 63.3891H54.1763C54.4787 63.3756 54.7635 63.2409 54.968 63.0146C55.1725 62.7884 55.28 62.4891 55.2669 62.1826C55.2669 62.0618 54.8464 49.9815 63.6538 43.4067C63.8741 43.2423 64.0289 43.0032 64.09 42.7329C64.1511 42.4626 64.1144 42.179 63.9866 41.9338C63.8588 41.6886 63.6484 41.4981 63.3936 41.3968C63.1389 41.2956 62.8568 41.2904 62.5986 41.3822C57.7076 43.121 53.6527 45.4639 50.0537 48.6444C50.7835 43.9096 52.5685 36.6556 56.9053 31.302C57.0765 31.0922 57.1691 30.8279 57.1668 30.5556C57.1646 30.2834 57.0676 30.0207 56.8929 29.8138C56.7183 29.607 56.4772 29.4692 56.2121 29.4249C55.9471 29.3805 55.6751 29.4324 55.4441 29.5713C52.5185 31.3052 48.3815 34.4318 44.4635 39.6972C42.5835 33.0702 42.3483 29.1419 44.0849 22.1769C44.146 21.9303 44.1254 21.6702 44.026 21.4367C43.9267 21.2032 43.7543 21.0093 43.5355 20.885C43.3166 20.7607 43.0634 20.7129 42.8151 20.749C42.5667 20.7851 42.337 20.903 42.1614 21.0846C36.1701 27.2888 33.9614 33.8931 33.3009 39.1356C29.6245 34.0237 25.7066 30.9036 22.8873 29.1207C22.6599 28.9775 22.3899 28.9198 22.1248 28.9578C21.8596 28.9957 21.616 29.1269 21.4366 29.3284C21.2572 29.5299 21.1533 29.7888 21.1431 30.0601C21.133 30.3313 21.2172 30.5975 21.381 30.8122C25.5922 36.3045 27.1807 43.6385 27.7783 48.3929C23.7653 44.8108 19.4897 42.9642 15.4074 41.3871C15.1564 41.2909 14.8799 41.2876 14.6268 41.3778C14.3736 41.468 14.16 41.6459 14.0236 41.8801ZM42.7961 42.112C41.2822 44.461 39.9791 46.9428 38.9023 49.5276C37.9287 47.0063 36.7429 44.5744 35.3581 42.2589C35.466 37.9356 36.6131 31.973 40.9692 26.048C40.146 31.5469 40.8468 35.6661 42.7961 42.112Z" fill="white"/>
<path d="M74.4475 59.3124C72.8848 58.1124 70.0801 59.3581 66.5536 62.8211C66.5257 62.8477 66.4993 62.8761 66.4747 62.906C63.8423 66.0717 54.1875 72.3559 47.7113 73.8302L47.6742 73.8384C44.1896 74.7543 42.8557 74.6809 42.4046 74.5862C42.5658 74.2123 43.0571 73.5233 43.8868 72.7527C45.9698 70.8163 48.222 68.3542 47.1313 66.4848C46.2115 64.9109 43.5034 64.0913 30.037 68.7199C23.7234 70.8898 17.136 69.3485 10.4584 64.137C7.28272 61.6241 4.4676 58.6755 2.0941 55.376C1.95843 55.1685 1.76038 55.0109 1.52934 54.9265C1.2983 54.8421 1.04656 54.8354 0.81147 54.9074C0.57638 54.9795 0.370459 55.1264 0.224249 55.3264C0.0780396 55.5263 -0.000670732 55.7688 -0.000206977 56.0177C-0.00802912 56.1811 0.0246479 56.3438 0.0948423 56.4911C2.77786 63.8919 7.46212 70.378 13.6118 75.2073C19.7614 80.0366 27.1282 83.0141 34.8693 83.7994C42.6104 84.5846 50.4133 83.1458 57.3855 79.6476C64.3576 76.1493 70.2174 70.7329 74.2945 64.0178C74.2965 64.0126 74.2992 64.0077 74.3025 64.0031L74.5893 63.5133L74.6135 63.4709C75.5688 61.6814 75.506 60.1255 74.4475 59.3124ZM72.6158 62.3525L72.3452 62.8096C65.152 74.6303 52.6909 81.6851 38.9974 81.6851C25.4649 81.6851 13.0264 74.5405 5.93957 63.2717C7.24593 64.5204 8.63168 65.681 10.0879 66.746C13.1633 68.9795 16.2951 70.5192 19.3995 71.3175C23.1465 72.3193 27.1019 72.1779 30.77 70.911C42.0116 67.0481 44.5908 67.4595 45.1079 67.6701C45.0274 67.9787 44.5988 68.9502 42.3418 71.0482C40.9499 72.3396 39.4646 74.2025 40.2878 75.7389C41.111 77.2752 43.3986 77.3503 48.2284 76.0833C55.2025 74.4898 65.2406 67.9297 68.1791 64.4439C70.9291 61.7565 72.4982 61.1786 73.0024 61.1786C72.9992 61.3663 72.9267 61.7631 72.6158 62.3525Z" fill="white"/>
<path d="M77.9045 27.5141C75.223 20.1121 70.5396 13.6246 64.3902 8.79394C58.2408 3.96331 50.8737 0.984664 43.132 0.19885C35.3903 -0.586964 27.5867 0.851792 20.6141 4.35049C13.6415 7.84919 7.78162 13.2665 3.70489 19.9825L3.69683 19.9956L3.41007 20.4854L3.38591 20.5295C2.43058 22.3254 2.4918 23.8765 3.54701 24.6896C5.10968 25.8896 7.91444 24.6455 11.4409 21.1826C11.4693 21.1557 11.4957 21.1268 11.5199 21.096C14.1603 17.927 23.8151 11.6428 30.2865 10.1701L30.3235 10.1603C33.8081 9.246 35.142 9.31947 35.5931 9.41417C35.432 9.78805 34.9407 10.477 34.1126 11.246C32.028 13.1824 29.7758 15.6445 30.868 17.5156C31.7879 19.0895 34.4944 19.9091 47.9608 15.2804C54.2743 13.1106 60.8617 14.6518 67.5409 19.8617C70.7169 22.3744 73.5316 25.3237 75.9037 28.6243C76.0083 28.7822 76.1495 28.9116 76.3149 29.0013C76.4803 29.0909 76.6649 29.1381 76.8525 29.1386C76.9195 29.1383 76.9863 29.1323 77.0523 29.1207C77.3171 29.0733 77.5569 28.9327 77.7294 28.7236C77.9018 28.5145 77.9958 28.2503 77.9947 27.9778C78.0029 27.8181 77.9719 27.6588 77.9045 27.5141ZM67.9082 17.2527C64.8344 15.0208 61.701 13.4812 58.5983 12.6795C54.8525 11.6793 50.8988 11.8218 47.2326 13.0893C35.991 16.9523 33.4134 16.5408 32.8947 16.3302C32.9752 16.0216 33.4038 15.0502 35.6608 12.9522C37.0527 11.6591 38.5364 9.79622 37.7132 8.26149C36.89 6.72677 34.6023 6.6484 29.7725 7.917C22.8001 9.5105 12.7603 16.069 9.8267 19.5548C7.07672 22.2422 5.5076 22.8201 5.00336 22.8201C5.00336 22.6275 5.07746 22.2324 5.39 21.6413L5.65904 21.1858C12.8538 9.36519 25.3133 2.30872 39.0068 2.30872C52.5393 2.30872 64.9762 9.45335 72.063 20.7238C70.7552 19.4751 69.3672 18.3156 67.9082 17.2527Z" fill="white"/>
</g>
<defs>
<clipPath id="clip0_0_142">
<rect width="78" height="84" fill="white"/>
</clipPath>
</defs>
</svg>
